HIERARCHY
ROOT Hips
{
  OFFSET 0 0 0
  CHANNELS 6 Xposition Yposition Zposition Zrotation Xrotation Yrotation
  JOINT RightUpLeg
  {
    OFFSET -9.32484 -1.5452 -0.0327167
    CHANNELS 3 Zrotation Xrotation Yrotation
    JOINT RightLeg
    {
      OFFSET -0.0645411 -41.8753 0.0945092
      CHANNELS 3 Zrotation Xrotation Yrotation
      JOINT RightFoot
      {
        OFFSET 0.259615 -41.3232 -0.503108
        CHANNELS 3 Zrotation Xrotation Yrotation
        End Site
        {
          OFFSET 0 -7.69 17.5
        }
      }
    }
  }
  JOINT LeftUpLeg
  {
    OFFSET 9.30493 -1.6128 -0.0386746
    CHANNELS 3 Zrotation Xrotation Yrotation
    JOINT LeftLeg
    {
      OFFSET 0.103013 -41.8793 -0.110338
      CHANNELS 3 Zrotation Xrotation Yrotation
      JOINT LeftFoot
      {
        OFFSET -0.0724631 -42.2968 0.379602
        CHANNELS 3 Zrotation Xrotation Yrotation
        End Site
        {
          OFFSET 0 -7.69 17.5
        }
      }
    }
  }
  JOINT Spine
  {
    OFFSET 0.0608374 14.3028 0.0348281
    CHANNELS 3 Zrotation Xrotation Yrotation
    JOINT Spine1
    {
      OFFSET 0.0519987 9.71902 0.0176487
      CHANNELS 3 Zrotation Xrotation Yrotation
      JOINT Spine2
      {
        OFFSET -0.0041249 10.1114 -0.00162228
        CHANNELS 3 Zrotation Xrotation Yrotation
        JOINT Spine3
        {
          OFFSET 0.0130957 9.71254 -0.0010762
          CHANNELS 3 Zrotation Xrotation Yrotation
          JOINT Neck
          {
            OFFSET 0.0257623 10.3752 -0.00952888
            CHANNELS 3 Zrotation Xrotation Yrotation
            JOINT Head
            {
              OFFSET 0.0279596 9.4733 -0.0202242
              CHANNELS 3 Zrotation Xrotation Yrotation
              End Site
              {
                OFFSET 0 15.95 0
              }
            }
          }
          JOINT RightShoulder
          {
            OFFSET -3.14702 6.94114 0.0203724
            CHANNELS 3 Zrotation Xrotation Yrotation
            JOINT RightArm
            {
              OFFSET -12.8372 0.0377774 0.0444165
              CHANNELS 3 Zrotation Xrotation Yrotation
              JOINT RightForeArm
              {
                OFFSET -26.5171 0.0633612 0.0743204
                CHANNELS 3 Zrotation Xrotation Yrotation
                JOINT RightHand
                {
                  OFFSET -25.9764 -0.0637705 0.00831415
                  CHANNELS 3 Zrotation Xrotation Yrotation
                  JOINT RightHandThumb1
                  {
                    OFFSET -2.48905 0.190105 3.12053
                    CHANNELS 3 Zrotation Xrotation Yrotation
                    JOINT RightHandThumb2
                    {
                      OFFSET -3.68274 0 0
                      CHANNELS 3 Zrotation Xrotation Yrotation
                      JOINT RightHandThumb3
                      {
                        OFFSET -2.55832 0 0
                        CHANNELS 3 Zrotation Xrotation Yrotation
                        End Site
                        {
                          OFFSET -2.194 0 0
                        }
                      }
                    }
                  }
                  JOINT RightInHandIndex
                  {
                    OFFSET -3.22368 0.508421 1.97842
                    CHANNELS 3 Zrotation Xrotation Yrotation
                    JOINT RightHandIndex1
                    {
                      OFFSET -5.21684 -0.091368 0.999158
                      CHANNELS 3 Zrotation Xrotation Yrotation
                      JOINT RightHandIndex2
                      {
                        OFFSET -3.61937 0 0
                        CHANNELS 3 Zrotation Xrotation Yrotation
                        JOINT RightHandIndex3
                        {
                          OFFSET -2.0521 0 0
                          CHANNELS 3 Zrotation Xrotation Yrotation
                          End Site
                          {
                            OFFSET -1.805 0 0
                          }
                        }
                      }
                    }
                  }
                  JOINT RightInHandMiddle
                  {
                    OFFSET -3.38211 0.517263 0.756737
                    CHANNELS 3 Zrotation Xrotation Yrotation
                    JOINT RightHandMiddle1
                    {
                      OFFSET -5.17411 -0.084 0.313895
                      CHANNELS 3 Zrotation Xrotation Yrotation
                      JOINT RightHandMiddle2
                      {
                        OFFSET -3.94947 0 0
                        CHANNELS 3 Zrotation Xrotation Yrotation
                        JOINT RightHandMiddle3
                        {
                          OFFSET -2.47579 0 0
                          CHANNELS 3 Zrotation Xrotation Yrotation
                          End Site
                          {
                            OFFSET -1.975 0 0
                          }
                        }
                      }
                    }
                  }
                  JOINT RightInHandRing
                  {
                    OFFSET -3.36516 0.537895 -0.128947
                    CHANNELS 3 Zrotation Xrotation Yrotation
                    JOINT RightHandRing1
                    {
                      OFFSET -4.63474 -0.022105 -0.478947
                      CHANNELS 3 Zrotation Xrotation Yrotation
                      JOINT RightHandRing2
                      {
                        OFFSET -3.44238 0 0
                        CHANNELS 3 Zrotation Xrotation Yrotation
                        JOINT RightHandRing3
                        {
                          OFFSET -2.3881 0 0
                          CHANNELS 3 Zrotation Xrotation Yrotation
                          End Site
                          {
                            OFFSET -1.857 0 0
                          }
                        }
                      }
                    }
                  }
                  JOINT RightInHandPinky
                  {
                    OFFSET -3.16105 0.469368 -1.20179
                    CHANNELS 3 Zrotation Xrotation Yrotation
                    JOINT RightHandPinky1
                    {
                      OFFSET -4.14105 -0.022105 -1.09053
                      CHANNELS 3 Zrotation Xrotation Yrotation
                      JOINT RightHandPinky2
                      {
                        OFFSET -2.75653 0 0
                        CHANNELS 3 Zrotation Xrotation Yrotation
                        JOINT RightHandPinky3
                        {
                          OFFSET -1.74189 0 0
                          CHANNELS 3 Zrotation Xrotation Yrotation
                          End Site
                          {
                            OFFSET -1.645 0 0
                          }
                        }
                      }
                    }
                  }
                  JOINT Props0
                  {
                    OFFSET 0 0 0
                    CHANNELS 3 Zrotation Xrotation Yrotation
                    End Site
                    {
                      OFFSET -30 0 50
                    }
                  }
                }
              }
            }
          }
          JOINT LeftShoulder
          {
            OFFSET 3.19692 6.91464 0.00619208
            CHANNELS 3 Zrotation Xrotation Yrotation
            JOINT LeftArm
            {
              OFFSET 12.7837 -0.0435162 -0.0410453
              CHANNELS 3 Zrotation Xrotation Yrotation
              JOINT LeftForeArm
              {
                OFFSET 26.4865 -0.0690586 -0.0177828
                CHANNELS 3 Zrotation Xrotation Yrotation
                JOINT LeftHand
                {
                  OFFSET 26.0204 -0.0993977 0.0014351
                  CHANNELS 3 Zrotation Xrotation Yrotation
                  JOINT LeftHandThumb1
                  {
                    OFFSET 2.48905 0.190105 3.12053
                    CHANNELS 3 Zrotation Xrotation Yrotation
                    JOINT LeftHandThumb2
                    {
                      OFFSET 3.68274 0 0
                      CHANNELS 3 Zrotation Xrotation Yrotation
                      JOINT LeftHandThumb3
                      {
                        OFFSET 2.55832 0 0
                        CHANNELS 3 Zrotation Xrotation Yrotation
                        End Site
                        {
                          OFFSET 2.194 0 0
                        }
                      }
                    }
                  }
                  JOINT LeftInHandIndex
                  {
                    OFFSET 3.22368 0.508421 1.97842
                    CHANNELS 3 Zrotation Xrotation Yrotation
                    JOINT LeftHandIndex1
                    {
                      OFFSET 5.21684 -0.091368 0.999158
                      CHANNELS 3 Zrotation Xrotation Yrotation
                      JOINT LeftHandIndex2
                      {
                        OFFSET 3.61937 0 0
                        CHANNELS 3 Zrotation Xrotation Yrotation
                        JOINT LeftHandIndex3
                        {
                          OFFSET 2.0521 0 0
                          CHANNELS 3 Zrotation Xrotation Yrotation
                          End Site
                          {
                            OFFSET 1.805 0 0
                          }
                        }
                      }
                    }
                  }
                  JOINT LeftInHandMiddle
                  {
                    OFFSET 3.38211 0.517263 0.756737
                    CHANNELS 3 Zrotation Xrotation Yrotation
                    JOINT LeftHandMiddle1
                    {
                      OFFSET 5.17411 -0.084 0.313895
                      CHANNELS 3 Zrotation Xrotation Yrotation
                      JOINT LeftHandMiddle2
                      {
                        OFFSET 3.94947 0 0
                        CHANNELS 3 Zrotation Xrotation Yrotation
                        JOINT LeftHandMiddle3
                        {
                          OFFSET 2.47579 0 0
                          CHANNELS 3 Zrotation Xrotation Yrotation
                          End Site
                          {
                            OFFSET 1.975 0 0
                          }
                        }
                      }
                    }
                  }
                  JOINT LeftInHandRing
                  {
                    OFFSET 3.36516 0.537895 -0.128947
                    CHANNELS 3 Zrotation Xrotation Yrotation
                    JOINT LeftHandRing1
                    {
                      OFFSET 4.63474 -0.022105 -0.478947
                      CHANNELS 3 Zrotation Xrotation Yrotation
                      JOINT LeftHandRing2
                      {
                        OFFSET 3.44238 0 0
                        CHANNELS 3 Zrotation Xrotation Yrotation
                        JOINT LeftHandRing3
                        {
                          OFFSET 2.3881 0 0
                          CHANNELS 3 Zrotation Xrotation Yrotation
                          End Site
                          {
                            OFFSET 1.857 0 0
                          }
                        }
                      }
                    }
                  }
                  JOINT LeftInHandPinky
                  {
                    OFFSET 3.16105 0.469368 -1.20179
                    CHANNELS 3 Zrotation Xrotation Yrotation
                    JOINT LeftHandPinky1
                    {
                      OFFSET 4.14105 -0.022105 -1.09053
                      CHANNELS 3 Zrotation Xrotation Yrotation
                      JOINT LeftHandPinky2
                      {
                        OFFSET 2.75653 0 0
                        CHANNELS 3 Zrotation Xrotation Yrotation
                        JOINT LeftHandPinky3
                        {
                          OFFSET 1.74189 0 0
                          CHANNELS 3 Zrotation Xrotation Yrotation
                          End Site
                          {
                            OFFSET 1.645 0 0
                          }
                        }
                      }
                    }
                  }
                }
              }
            }
          }
        }
      }
    }
  }
}
MOTION
Frames:	4
Frame Time:	0.00833333
0 0 0 1.5629 -4.41862 -160.07 -20.3652 -12.0148 -3.43397 11.7501 8.23895 -11.1769 8.90814 -3.73215 -9.08808 12.7461 -25.6258 -11.764 -6.8898 21.4623 13.0418 -3.97539 -3.50028 21.9675 11.0854 13.1906 -21.7157 2.29585 4.16975 -5.0138 3.86018 6.96249 -7.83393 -0.669059 0.205588 0.745795 -0.67198 0.214327 0.748456 -13.0119 3.91307 13.9557 1.77455 -14.9711 31.7905 46.847 46.9544 39.8743 65.4327 -71.169 59.2859 16.4256 31.4436 -42.364 28.184 10.7294 19.1592 2.17563e-15 3.18055e-15 -10 9.68886e-15 0 -10 4.77083e-15 0 -6.36111e-15 19.9818 0.871897 2.3964 24 -2.78299e-15 6.36111e-15 20 -4.77083e-15 1.90833e-14 4.77083e-15 0 -6.36111e-15 20 -6.36111e-15 3.18055e-15 24 5.96354e-15 -6.36111e-15 20 3.18055e-15 -9.54166e-15 4.77083e-15 0 -6.36111e-15 19.9748 -1.02565 -2.81938 24 9.69075e-16 3.18055e-14 20 -1.59028e-15 1.59028e-14 4.77083e-15 0 -6.36111e-15 19.7815 -3.00948 -8.30515 24 2.5842e-15 9.54166e-15 20 -6.36111e-15 -3.18055e-14 -17.0388 -9.74298 -95.7811 -12.5963 -11.3337 23.0407 -66.9809 57.8098 -37.1548 -25.4751 -33.5876 -33.2516 25.7344 -24.1707 6.65055 -28.184 10.7294 -19.1592 1.46034e-14 -3.97569e-16 10 7.32829e-15 7.95139e-16 10 7.95139e-16 -3.18055e-15 -0 -19.9818 0.871897 -2.3964 -24 3.18055e-15 9.54166e-15 -20 2.48481e-15 9.54166e-15 7.95139e-16 -3.18055e-15 -0 -20 0 1.59028e-15 -24 -4.77083e-15 6.36111e-15 -20 -3.97569e-16 3.18055e-15 7.95139e-16 -3.18055e-15 -0 -19.9748 -1.02565 2.81938 -24 -3.18055e-15 -0 -20 0 3.18055e-15 7.95139e-16 -3.18055e-15 -0 -19.7815 -3.00948 8.30515 -24 3.18055e-15 3.18055e-15 -20 -3.18055e-15 -9.54166e-15 
0 0 0 1.55085 -4.46577 -160.007 -20.4646 -12.1391 -3.01381 11.9033 8.30706 -11.3268 8.84552 -3.87357 -9.45025 12.6856 -25.7013 -11.6731 -6.79866 21.4407 12.9169 -3.97038 -3.4465 21.9211 11.0927 13.1592 -21.6821 2.30036 4.16981 -5.00549 3.86581 6.94883 -7.82122 -0.669059 0.205588 0.745795 -0.67198 0.214327 0.748456 -13.0572 3.92813 13.9647 1.77828 -14.9105 31.8279 46.8693 46.8759 39.8266 65.3285 -71.1863 59.1522 16.2674 31.4726 -42.3866 28.184 10.7294 19.1592 8.63487e-15 3.18055e-15 -10 4.93175e-16 -6.36111e-15 -10 -3.18055e-15 3.18055e-15 -3.18055e-15 19.9818 0.871897 2.3964 24 -3.97569e-16 -3.18055e-15 20 -4.77083e-15 1.27222e-14 -3.18055e-15 3.18055e-15 -3.18055e-15 20 9.54166e-15 1.27222e-14 24 4.57205e-15 -0 20 1.59028e-15 1.59028e-14 -3.18055e-15 3.18055e-15 -3.18055e-15 19.9748 -1.02565 -2.81938 24 -2.28602e-15 1.27222e-14 20 0 2.22639e-14 -3.18055e-15 3.18055e-15 -3.18055e-15 19.7815 -3.00948 -8.30515 24 1.19271e-15 6.36111e-15 20 -3.18055e-15 -1.59028e-14 -16.7764 -9.60847 -95.5787 -12.5876 -11.2677 23.0735 -66.9448 57.8094 -37.25 -25.4792 -33.6247 -33.2292 25.7747 -24.1149 6.76252 -28.184 10.7294 -19.1592 -2.7389e-15 -2.78299e-15 10 -3.97538e-15 7.95139e-16 10 1.98785e-15 -3.18055e-15 -1.59028e-15 -19.9818 0.871897 -2.3964 -24 -2.38542e-15 6.36111e-15 -20 -1.19271e-15 -0 1.98785e-15 -3.18055e-15 -1.59028e-15 -20 -3.18055e-15 -0 -24 0 -9.54166e-15 -20 4.17448e-15 -0 1.98785e-15 -3.18055e-15 -1.59028e-15 -19.9748 -1.02565 2.81938 -24 6.36111e-15 3.18055e-15 -20 3.97569e-15 3.18055e-15 1.98785e-15 -3.18055e-15 -1.59028e-15 -19.7815 -3.00948 8.30515 -24 7.95139e-15 -6.36111e-15 -20 1.59028e-15 -9.54166e-15 
0 0 0 1.5416 -4.49011 -159.942 -20.5665 -12.2447 -2.60959 12.073 8.37501 -11.4666 8.78086 -4.01216 -9.80552 12.6278 -25.7726 -11.6016 -6.71602 21.4539 12.8 -3.96746 -3.40699 21.8823 11.1097 13.1399 -21.6516 2.30634 4.16986 -4.99686 3.87434 6.94121 -7.80754 -0.669059 0.205588 0.745795 -0.67198 0.214327 0.748456 -13.098 3.93384 13.9725 1.77346 -14.8574 31.8501 46.9 46.8112 39.7793 65.2994 -71.2093 59.0909 16.0951 31.4925 -42.4044 28.184 10.7294 19.1592 -4.93175e-16 6.36111e-15 -10 1.45333e-14 0 -10 6.36111e-15 6.36111e-15 -3.18055e-15 19.9818 0.871897 2.3964 24 -3.97569e-15 -1.27222e-14 20 0 1.90833e-14 6.36111e-15 6.36111e-15 -3.18055e-15 20 1.43125e-14 6.36111e-15 24 6.95746e-15 -6.36111e-15 20 -3.18055e-15 6.36111e-15 6.36111e-15 6.36111e-15 -3.18055e-15 19.9748 -1.02565 -2.81938 24 -5.86415e-15 1.90833e-14 20 0 1.27222e-14 6.36111e-15 6.36111e-15 -3.18055e-15 19.7815 -3.00948 -8.30515 24 -7.95139e-16 -9.54166e-15 20 -7.95139e-15 -9.54166e-15 -16.5342 -9.44078 -95.356 -12.5774 -11.2045 23.0897 -66.9031 57.8038 -37.3411 -25.4839 -33.6477 -33.2096 25.8116 -24.0537 6.87897 -28.184 10.7294 -19.1592 1.32158e-14 -3.97569e-15 10 2.32675e-15 3.97569e-15 10 -3.97569e-16 1.27222e-14 1.59028e-15 -19.9818 0.871897 -2.3964 -24 -3.18055e-15 -0 -20 2.38542e-15 6.36111e-15 -3.97569e-16 1.27222e-14 1.59028e-15 -20 3.18055e-15 -4.77083e-15 -24 -6.36111e-15 -6.36111e-15 -20 5.96354e-16 6.36111e-15 -3.97569e-16 1.27222e-14 1.59028e-15 -19.9748 -1.02565 2.81938 -24 1.59028e-15 -6.36111e-15 -20 -3.97569e-15 -0 -3.97569e-16 1.27222e-14 1.59028e-15 -19.7815 -3.00948 8.30515 -24 4.77083e-15 1.59028e-15 -20 1.59028e-15 -3.18055e-15 
0 0 0 1.54232 -4.4831 -159.87 -20.6583 -12.3235 -2.23863 12.2546 8.44023 -11.5844 8.71084 -4.14524 -10.1542 12.5779 -25.8427 -11.5608 -6.64162 21.5152 12.6984 -3.97566 -3.38502 21.8447 11.1425 13.1365 -21.63 2.31494 4.16991 -4.98894 3.88802 6.94374 -7.79411 -0.669059 0.205588 0.745795 -0.67198 0.214327 0.748456 -13.1347 3.93033 13.9801 1.75977 -14.8171 31.8538 46.9392 46.7698 39.7361 65.3956 -71.2437 59.151 15.9103 31.5043 -42.4165 28.184 10.7294 19.1592 -8.07405e-15 0 -10 5.3376e-15 -6.36111e-15 -10 1.59028e-15 6.36111e-15 -3.18055e-15 19.9818 0.871897 2.3964 24 -1.98785e-15 -0 20 1.59028e-15 9.54166e-15 1.59028e-15 6.36111e-15 -3.18055e-15 20 1.11319e-14 9.54166e-15 24 2.78299e-15 -6.36111e-15 20 -1.59028e-15 6.36111e-15 1.59028e-15 6.36111e-15 -3.18055e-15 19.9748 -1.02565 -2.81938 24 2.29845e-16 1.59028e-14 20 4.77083e-15 1.90833e-14 1.59028e-15 6.36111e-15 -3.18055e-15 19.7815 -3.00948 -8.30515 24 3.97569e-16 9.54166e-15 20 -3.18055e-15 -1.27222e-14 -16.3337 -9.2162 -95.112 -12.5611 -11.1474 23.085 -66.857 57.7893 -37.4238 -25.4821 -33.6525 -33.1877 25.8464 -23.9855 7.00521 -28.184 10.7294 -19.1592 1.28459e-14 -8.74653e-15 10 -4.17723e-15 7.95139e-16 10 -2.38542e-15 1.27222e-14 -3.18055e-15 -19.9818 0.871897 -2.3964 -24 -2.38542e-15 6.36111e-15 -20 1.09332e-15 3.18055e-15 -2.38542e-15 1.27222e-14 -3.18055e-15 -20 3.18055e-15 1.59028e-15 -24 0 -6.36111e-15 -20 3.77691e-15 -3.18055e-15 -2.38542e-15 1.27222e-14 -3.18055e-15 -19.9748 -1.02565 2.81938 -24 0 -6.36111e-15 -20 -1.59028e-15 -0 -2.38542e-15 1.27222e-14 -3.18055e-15 -19.7815 -3.00948 8.30515 -24 4.77083e-15 1.59028e-15 -20 0 -6.36111e-15 
